<?xml version="1.0" standalone="no"?>
<!DOCTYPE svg PUBLIC "-//W3C//DTD SVG 20010904//EN"
 "http://www.w3.org/TR/2001/REC-SVG-20010904/DTD/svg10.dtd">
<svg version="1.0" xmlns="http://www.w3.org/2000/svg"
 width="512.000000pt" height="512.000000pt" viewBox="0 0 512.000000 512.000000"
 preserveAspectRatio="xMidYMid meet">
<metadata>
Created by potrace 1.11, written by Peter Selinger 2001-2013
</metadata>
<g transform="translate(0.000000,512.000000) scale(0.100000,-0.100000)"
fill="#000000" stroke="none">
<path d="M415 5110 c-183 -38 -330 -170 -391 -350 -18 -53 -19 -134 -19 -2200
0 -2066 1 -2147 19 -2200 52 -154 168 -274 322 -332 l59 -23 2155 0 2155 0 59
23 c154 58 270 178 322 332 18 53 19 134 19 2200 0 2066 -1 2147 -19 2200 -52
154 -168 274 -322 332 l-59 23 -2130 1 c-1172 1 -2148 -2 -2170 -6z m955
-2555 l0 -1155 -200 0 c-220 0 -254 7 -287 56 -17 27 -18 78 -18 1094 0 1169
-3 1119 59 1146 23 10 88 13 239 14 l207 0 0 -1155z m959 988 c0 -201 -8 -230
-64 -258 -38 -19 -60 -20 -400 -20 l-360 0 -3 223 -2 222 415 0 415 0 -1 -167z
m901 -989 l0 -1155 -218 3 c-239 3 -259 8 -285 66 -19 43 -17 2135 2 2180 24
57 42 61 284 62 l217 0 0 -1156z m718 1141 c59 -14 139 -50 172 -77 98 -81
140 -264 140 -604 0 -301 -37 -469 -127 -588 -85 -111 -182 -135 -540 -136
l-243 0 0 149 0 149 158 4 c86 3 164 8 173 12 36 16 39 50 39 402 0 206 -4
353 -10 364 -16 31 -67 40 -216 40 l-144 0 0 150 0 150 268 0 c200 0 283 -4
330 -15z m-1778 -1037 c0 -149 -10 -202 -43 -220 -16 -10 -105 -14 -324 -16
l-303 -4 0 186 0 186 335 0 335 0 0 -132z m190 -975 c0 -209 -7 -238 -63 -264
-39 -17 -70 -19 -419 -19 l-378 0 0 225 0 225 430 0 430 0 0 -167z"/>
</g>
</svg>
